<?xml version="1.0" standalone="no"?>
<!DOCTYPE svg PUBLIC "-//W3C//DTD SVG 20010904//EN"
 "http://www.w3.org/TR/2001/REC-SVG-20010904/DTD/svg10.dtd">
<svg version="1.0" xmlns="http://www.w3.org/2000/svg"
 width="1024.000000pt" height="1024.000000pt" viewBox="0 0 1024.000000 1024.000000"
 preserveAspectRatio="xMidYMid meet">
<metadata>
Created by potrace 1.11, written by Peter Selinger 2001-2013
</metadata>
<g transform="translate(0.000000,1024.000000) scale(0.100000,-0.100000)"
fill="#000000" stroke="none">
<path d="M8322 9082 c-2 -20 -5 -38 -7 -41 -3 -2 -39 -4 -81 -4 -70 1 -87 -8
-39 -20 15 -4 13 -5 -7 -6 -23 -1 -28 -6 -28 -26 0 -25 -16 -31 -59 -25 -8 1
-35 -1 -60 -5 l-46 -7 33 -14 c19 -7 31 -18 27 -24 -3 -5 -8 -10 -11 -10 -3 0
-3 4 0 9 3 5 -1 12 -10 15 -25 10 -37 7 -31 -7 12 -31 -10 -40 -87 -40 -45 1
-76 -3 -76 -9 0 -6 6 -8 14 -5 10 4 14 0 13 -14 -1 -22 -13 -25 -20 -6 -3 6
-6 -1 -6 -17 l-1 -29 -74 6 c-84 6 -96 0 -96 -50 0 -32 -1 -33 -42 -34 -24 -1
-76 0 -116 1 l-73 2 4 -41 c3 -33 1 -41 -12 -41 -10 0 -23 -6 -30 -12 -11 -10
-13 -10 -7 0 5 9 -8 12 -54 12 l-61 0 2 -32 c1 -18 1 -37 0 -43 0 -6 -33 -9
-81 -7 -80 3 -80 3 -80 -23 0 -14 5 -25 11 -25 6 0 4 -7 -5 -15 -10 -11 -36
-15 -90 -15 l-75 0 -3 -42 -3 -43 -39 3 c-25 3 -42 -1 -47 -10 -7 -10 -9 -10
-9 0 0 7 -13 12 -30 12 -28 0 -30 -2 -30 -40 0 -37 -2 -40 -27 -41 -16 0 -68
-1 -118 -2 l-90 -2 -2 -30 c-2 -29 -2 -29 7 -5 l9 25 -2 -25 c-3 -35 -39 -49
-113 -46 l-63 3 1 -49 c0 -27 -3 -52 -6 -55 -3 -4 -6 1 -6 10 0 14 -12 17 -75
17 l-75 0 0 -39 c0 -22 3 -41 8 -44 4 -2 1 -2 -7 0 -7 2 -21 -2 -29 -9 -12
-10 -14 -10 -8 0 4 7 1 12 -9 12 -10 0 -13 -5 -9 -12 5 -8 0 -7 -11 2 -17 14
-17 13 -11 -10 l6 -25 -12 23 c-9 18 -19 22 -42 20 -26 -3 -30 -7 -34 -38 -2
-19 -5 -37 -8 -39 -2 -2 -42 -3 -89 -3 -67 0 -85 -3 -85 -14 0 -8 5 -14 10
-14 6 0 10 -7 10 -15 0 -8 -6 -15 -14 -15 -8 0 -16 -5 -18 -11 -2 -6 -27 -11
-56 -12 -29 0 -49 -3 -45 -6 4 -3 9 -15 10 -26 1 -20 1 -20 -13 -1 -8 11 -14
23 -14 28 0 4 -7 8 -15 8 -8 0 -15 -7 -15 -15 0 -8 5 -15 10 -15 6 0 10 -7 10
-15 0 -8 -7 -15 -15 -15 -8 0 -15 -4 -15 -10 0 -6 -41 -10 -104 -10 l-105 0
-3 -42 -3 -41 -87 2 c-74 2 -88 0 -88 -13 0 -9 5 -16 10 -16 6 0 10 -7 10 -15
0 -8 -6 -15 -14 -15 -8 0 -16 -4 -18 -9 -1 -6 -31 -11 -65 -12 -68 -2 -80 -16
-41 -43 12 -9 18 -16 12 -16 -5 0 -15 5 -22 12 -9 9 -12 7 -12 -10 0 -20 -5
-22 -57 -23 -99 -1 -115 -4 -129 -24 -10 -14 -14 -15 -14 -4 -1 10 -4 9 -14
-4 -11 -14 -15 -15 -19 -5 -2 7 -2 3 0 -10 4 -24 -4 -29 -49 -35 -15 -1 -37
-13 -49 -26 -15 -16 -24 -20 -32 -12 -19 19 -34 12 -34 -14 0 -22 2 -23 21
-13 17 9 19 8 9 -3 -8 -7 -30 -12 -52 -11 -31 2 -40 -1 -44 -15 -4 -17 -5 -17
-6 0 -1 18 -27 22 -69 10 -20 -5 -23 -11 -20 -39 l4 -34 -83 0 -83 0 0 -40 c0
-22 -3 -40 -7 -41 -5 0 -41 -1 -81 -2 l-72 -1 2 -32 c1 -19 0 -36 -3 -38 -3
-3 -30 -7 -60 -8 -30 -1 -57 -7 -61 -13 -5 -6 -8 -5 -8 4 0 11 -3 11 -17 0
-11 -10 -14 -10 -9 -1 4 6 3 12 -2 12 -6 0 -13 -7 -16 -16 -3 -8 -11 -12 -17
-8 -8 4 -7 9 2 15 9 5 4 7 -15 6 -16 -1 -31 -9 -33 -17 -3 -10 -2 -11 4 -4 6
9 11 8 21 -2 11 -12 9 -14 -8 -14 -11 0 -20 -4 -20 -9 0 -17 25 -18 44 -2 19
16 19 16 0 -11 -10 -14 -20 -22 -22 -17 -2 5 -8 9 -13 9 -6 0 -8 -4 -5 -8 3
-5 -23 -7 -57 -6 -40 2 -56 0 -47 -7 13 -7 12 -9 -2 -9 -10 0 -18 5 -18 10 0
6 -9 10 -20 10 -17 0 -20 -7 -20 -40 l0 -40 -78 0 -79 0 -1 -36 c-1 -20 -3
-39 -6 -41 -2 -3 -39 -5 -81 -5 l-76 -1 3 -34 c2 -25 -3 -37 -21 -50 -14 -9
-21 -11 -17 -5 5 9 -7 12 -43 12 -70 0 -81 -6 -81 -46 0 -36 -3 -38 -69 -34
-18 1 -31 -2 -28 -7 4 -6 0 -10 -8 -10 -8 0 -15 4 -15 9 0 4 -10 8 -22 8 -12
0 -18 -3 -15 -7 4 -3 1 -13 -7 -22 -8 -9 -16 -25 -19 -36 -4 -18 -5 -18 -6 3
-1 26 -21 30 -21 5 0 -11 -7 -5 -16 15 -18 34 -31 41 -40 18 -3 -8 -12 -12
-20 -9 -9 3 -14 -2 -15 -13 -1 -15 -3 -13 -10 6 -8 23 -8 22 -5 -7 3 -33 2
-33 -41 -33 -44 0 -45 0 -43 -32 1 -18 2 -37 1 -43 -1 -6 -34 -9 -82 -8 l-80
1 3 -35 c2 -23 -2 -38 -10 -41 -8 -2 -12 9 -12 37 0 58 -27 57 -33 -1 l-4 -43
-1 43 c-2 52 -22 56 -22 4 0 -37 -1 -38 -30 -34 -40 6 -60 -13 -60 -54 0 -32
-2 -34 -35 -34 -24 0 -35 -5 -35 -15 0 -10 -10 -15 -34 -15 -41 0 -65 -23 -46
-45 7 -8 28 -15 46 -15 32 0 34 -2 34 -35 0 -34 1 -35 38 -36 125 -1 122 0
122 -20 0 -16 -7 -19 -40 -19 -33 0 -40 -3 -40 -20 0 -18 7 -20 78 -20 l79 0
-5 -30 c-8 -53 8 -60 134 -60 l114 0 0 -35 c0 -34 1 -35 40 -35 33 0 40 -3 40
-20 0 -17 7 -20 40 -20 33 0 40 -3 40 -20 0 -17 7 -20 39 -20 30 0 40 -4 44
-20 4 -15 14 -20 41 -20 30 0 36 -4 36 -20 0 -12 6 -20 13 -19 45 6 57 -1 57
-34 0 -48 15 -57 91 -57 76 0 86 7 92 65 4 40 4 40 5 -7 2 -41 5 -48 22 -48
17 0 20 7 20 40 0 22 5 40 10 40 6 0 10 9 10 20 0 16 7 20 35 20 28 0 35 -4
35 -20 0 -13 -7 -20 -19 -20 -16 0 -20 -8 -23 -42 -2 -29 -7 -42 -16 -40 -11
2 -13 -14 -10 -72 2 -62 0 -76 -14 -85 -11 -7 -18 -23 -18 -41 0 -23 -5 -31
-24 -36 -31 -8 -36 -27 -36 -160 0 -144 14 -158 93 -95 15 13 20 12 40 -7 29
-27 37 -28 37 -3 0 22 30 35 60 26 17 -6 20 -2 20 28 0 34 1 34 53 41 85 10
85 10 83 -25 0 -18 5 -34 12 -36 8 -3 12 6 12 26 0 28 3 30 43 33 39 3 42 5
45 34 2 19 -3 38 -13 48 -15 15 -13 16 32 13 42 -2 48 0 47 18 0 18 5 20 43
16 38 -3 43 -1 43 18 0 18 6 21 40 21 39 0 40 1 40 34 0 19 5 38 10 41 6 3 10
-3 10 -14 0 -17 6 -21 30 -21 25 0 31 5 39 33 5 17 10 26 10 20 1 -18 49 -16
67 2 9 8 29 15 46 15 27 0 30 3 26 24 -5 22 -2 24 27 19 21 -3 41 1 59 12 l26
17 0 -51 c0 -39 4 -51 15 -51 11 0 15 12 15 46 0 27 4 43 10 39 6 -4 10 10 10
34 l0 41 40 0 c23 0 40 5 40 11 0 8 4 8 14 -1 8 -6 25 -10 38 -8 18 2 24 11
28 42 l5 39 78 -2 77 -2 0 111 c0 66 -4 109 -9 105 -5 -3 -13 0 -17 6 -4 8 -3
9 4 5 14 -8 32 25 32 58 0 31 24 39 101 34 l54 -3 0 85 c0 47 -3 102 -7 122
-6 34 -5 37 20 41 l27 3 -25 11 c-18 9 -20 12 -7 12 16 1 22 13 17 36 -1 6 4
4 11 -2 7 -7 20 -13 28 -13 13 0 13 2 2 9 -11 7 -11 9 0 13 8 3 10 9 6 14 -4
4 -21 3 -37 -3 -31 -12 -55 2 -30 17 10 6 9 9 -1 13 -9 4 -7 6 6 7 l20 1 -20
9 c-17 7 -18 9 -2 9 9 1 26 -4 37 -11 10 -7 23 -9 27 -4 4 4 0 12 -10 18 -30
16 -1 38 52 39 25 0 39 3 31 6 -8 3 -26 15 -40 26 -19 16 -21 18 -5 12 45 -17
55 -17 55 -1 0 13 13 16 80 16 l80 0 0 38 c0 27 6 41 21 50 12 8 18 9 14 3 -4
-7 4 -11 19 -11 23 0 26 4 26 39 0 38 1 39 40 43 22 2 44 0 49 -5 4 -4 41 -7
82 -5 71 3 74 4 75 28 2 69 -2 65 69 62 51 -3 65 -1 63 10 -2 7 3 12 10 10 7
-1 12 3 11 10 -5 43 0 48 52 48 37 0 48 3 43 13 -6 9 -4 9 7 1 19 -15 82 -26
103 -18 32 12 12 64 -26 64 -10 0 -18 4 -18 8 0 14 58 1 72 -15 7 -8 17 -25
23 -37 7 -14 20 -21 40 -21 27 0 30 4 33 33 2 22 -3 41 -15 55 -10 11 -12 17
-5 13 9 -5 12 3 12 28 0 39 -5 38 105 38 54 0 55 -1 55 -22 0 -11 5 -20 10
-20 6 0 10 7 10 15 0 8 9 15 20 15 11 0 20 -7 20 -15 0 -8 4 -15 9 -15 9 0 21
57 21 100 0 24 3 26 35 22 35 -4 35 -4 35 37 l0 41 88 2 c48 0 93 1 99 1 7 -1
10 4 6 10 -9 16 -10 56 -1 51 4 -3 8 -12 8 -20 0 -8 5 -14 10 -14 6 0 10 5 10
12 0 6 3 8 6 5 4 -4 2 -13 -4 -20 -7 -8 -9 -17 -5 -20 15 -16 23 -4 23 33 0
22 5 40 11 40 5 0 7 5 4 11 -4 6 3 5 15 -3 18 -10 24 -10 27 0 3 6 9 12 14 12
6 0 8 -4 5 -9 -3 -5 5 -8 19 -8 29 0 70 40 62 61 -7 17 20 19 176 16 l67 -1 0
40 0 41 41 0 c41 0 41 0 37 35 -4 37 4 45 48 45 14 0 35 5 46 11 15 8 19 8 14
0 -5 -8 15 -11 63 -11 l71 0 0 40 0 40 68 1 c37 1 73 1 80 0 8 -1 12 12 12 39
0 38 1 40 33 41 17 1 35 1 40 0 4 0 7 10 7 24 0 25 -14 33 -25 15 -4 -6 -11
-8 -16 -4 -15 9 12 36 29 29 12 -4 14 2 9 40 -6 41 -4 47 16 55 19 8 20 9 3 9
-11 1 -16 4 -13 8 4 3 19 0 33 -7 22 -12 27 -12 34 0 15 23 12 38 -7 43 -17 4
-17 5 0 6 14 1 18 8 15 29 -2 15 -8 26 -15 25 -7 -2 -13 2 -13 8 0 6 7 9 15 5
12 -4 14 0 11 20 -4 19 -2 23 7 16 14 -12 69 -4 61 9 -3 5 -1 9 5 9 5 0 11 -5
13 -10 2 -6 21 -11 43 -13 l40 -2 -3 163 c-3 145 -2 161 12 156 9 -3 32 -3 52
0 l35 7 -3 84 c-2 46 0 81 5 78 4 -2 7 -40 7 -84 0 -64 3 -79 15 -79 12 0 15
16 15 80 0 49 4 80 10 80 6 0 10 6 9 13 -1 6 -1 42 0 80 l1 67 40 0 40 0 0 49
c0 58 20 87 50 71 10 -6 21 -10 24 -10 13 0 5 55 -11 72 -16 18 -16 18 0 12
15 -5 17 0 16 40 -1 25 -7 46 -13 46 -7 0 -7 3 -1 8 6 4 11 13 12 19 2 10 -18
13 -75 12 l-78 -1 -2 -36z m64 -4 c4 -7 3 -8 -4 -4 -7 4 -12 1 -12 -8 0 -9 -5
-16 -10 -16 -7 0 -7 6 0 20 12 23 16 24 26 8z m-141 -68 c-3 -5 -12 -10 -18
-10 -7 0 -6 4 3 10 19 12 23 12 15 0z m-178 -66 c-3 -3 -12 -4 -19 -1 -8 3 -5
6 6 6 11 1 17 -2 13 -5z m-497 -244 c0 -5 -2 -10 -4 -10 -3 0 -8 5 -11 10 -3
6 -1 10 4 10 6 0 11 -4 11 -10z m-53 -25 c0 -8 -4 -12 -9 -9 -5 3 -6 10 -3 15
9 13 12 11 12 -6z m-471 -242 c-3 -4 -6 -1 -6 5 0 7 -7 12 -15 12 -8 0 -15 -4
-15 -9 0 -5 -7 -11 -15 -15 -12 -4 -13 -2 -3 14 7 11 19 21 28 23 16 3 36 -20
26 -30z m-371 -143 c3 -5 1 -10 -4 -10 -6 0 -11 5 -11 10 0 6 2 10 4 10 3 0 8
-4 11 -10z m-171 -78 c3 -5 -1 -9 -9 -9 -8 0 -12 4 -9 9 3 4 7 8 9 8 2 0 6 -4
9 -8z m-39 -21 c3 -5 2 -12 -3 -15 -5 -3 -9 1 -9 9 0 17 3 19 12 6z m1432
-216 c0 -8 -4 -12 -9 -9 -5 3 -6 10 -3 15 9 13 12 11 12 -6z m-2307 -155 c0
-17 -27 -23 -47 -11 -15 9 -13 10 11 5 21 -5 27 -4 22 5 -4 6 -2 11 3 11 6 0
11 -5 11 -10z m-125 -80 c-3 -5 -12 -10 -18 -10 -7 0 -6 4 3 10 19 12 23 12
15 0z m1815 -154 c0 -2 -8 -10 -17 -17 -16 -13 -17 -12 -4 4 13 16 21 21 21
13z m-2220 -23 c-8 -3 -22 -11 -30 -17 -13 -10 -13 -9 -1 7 7 9 21 17 30 16
13 0 14 -1 1 -6z m-110 -73 c0 -5 -2 -10 -4 -10 -3 0 -8 5 -11 10 -3 6 -1 10
4 10 6 0 11 -4 11 -10z m-231 -106 c14 -12 -19 -1 -35 12 -18 14 -18 14 6 3
14 -6 27 -13 29 -15z m1951 -74 c0 -5 -2 -10 -4 -10 -3 0 -8 5 -11 10 -3 6 -1
10 4 10 6 0 11 -4 11 -10z m-609 -289 c5 8 9 9 9 3 0 -6 -6 -16 -13 -22 -10
-8 -13 -5 -14 16 0 17 1 20 4 8 4 -15 7 -16 14 -5z m-93 -25 c-10 -7 -15 -16
-11 -20 4 -4 0 -4 -10 0 -23 8 -22 13 6 24 31 12 35 11 15 -4z m48 5 c-4 -5 0
-12 6 -14 7 -3 2 -6 -11 -6 -20 -1 -21 1 -11 14 14 16 25 21 16 6z m-2381 -81
c-3 -5 -12 -10 -18 -10 -7 0 -6 4 3 10 19 12 23 12 15 0z m-541 -256 c6 -15 4
-15 -11 -3 -10 7 -20 15 -22 16 -2 2 3 3 11 3 9 0 19 -7 22 -16z m-162 -64 c6
0 9 -3 5 -6 -3 -3 -15 1 -27 9 -15 10 -18 16 -8 19 7 3 14 -1 16 -9 2 -7 8
-13 14 -13z m2128 -500 c0 -5 -8 -10 -17 -10 -15 0 -16 2 -3 10 19 12 20 12
20 0z m-1350 -144 c0 -3 -4 -8 -10 -11 -5 -3 -10 -1 -10 4 0 6 5 11 10 11 6 0
10 -2 10 -4z m877 -232 c-3 -3 -12 -4 -19 -1 -8 3 -5 6 6 6 11 1 17 -2 13 -5z
m-387 -159 c-7 -9 -15 -13 -19 -10 -3 3 1 10 9 15 21 14 24 12 10 -5z m-105
-44 c3 -5 1 -12 -5 -16 -5 -3 -10 1 -10 9 0 18 6 21 15 7z"/>
<path d="M1920 8799 c0 -63 -4 -83 -18 -97 -10 -10 -24 -16 -30 -14 -7 2 -12
-5 -13 -15 -1 -13 -3 -11 -9 7 -4 15 -7 -18 -7 -82 0 -59 4 -105 8 -102 4 2
11 -1 15 -7 4 -7 3 -9 -3 -6 -13 8 -23 -15 -23 -54 0 -30 -5 -32 -53 -29 l-27
2 1 -79 c1 -45 6 -81 13 -85 8 -6 7 -8 -1 -8 -7 0 -13 -8 -13 -18 0 -10 6 -24
13 -31 10 -11 10 -13 0 -7 -9 5 -13 0 -13 -13 0 -10 6 -21 13 -24 6 -3 -2 -4
-20 -3 -37 1 -45 -16 -11 -25 l23 -6 -25 -4 c-15 -3 -24 -10 -22 -19 3 -10 -2
-9 -17 4 -21 19 -21 19 -21 -32 0 -28 4 -53 10 -57 6 -3 5 -15 -2 -31 -9 -20
-9 -30 1 -46 7 -11 8 -17 2 -13 -8 4 -11 -18 -11 -69 0 -72 -1 -76 -22 -77
-13 -1 -27 -1 -33 1 -5 1 -1 -9 10 -22 20 -23 20 -23 0 -8 -11 8 -23 19 -27
24 -3 5 -7 -116 -7 -270 l-1 -279 -27 -23 -28 -23 28 -20 c21 -16 27 -29 27
-60 0 -21 -4 -39 -10 -39 -5 0 -10 9 -10 20 0 14 -7 20 -21 20 -18 0 -20 -5
-16 -37 2 -21 2 -30 0 -20 -9 37 -18 14 -21 -53 -4 -79 4 -114 21 -103 7 3 4
-3 -5 -14 -14 -15 -18 -37 -18 -94 0 -51 3 -69 10 -59 13 21 13 3 -1 -22 -9
-16 -8 -23 2 -29 10 -6 11 -9 2 -9 -10 0 -13 -30 -11 -122 l2 -123 6 85 c3 47
8 78 9 70 2 -8 2 -22 1 -29 -2 -13 1 -13 17 -1 17 14 17 14 2 -5 -18 -23 -15
-130 4 -118 6 3 7 1 3 -6 -4 -6 -12 -9 -17 -6 -5 4 -9 0 -9 -7 0 -9 -3 -9 -10
2 -8 12 -10 12 -10 1 0 -8 7 -19 15 -25 16 -12 28 -136 13 -136 -4 0 -8 -8 -8
-17 0 -14 -2 -15 -9 -5 -4 7 -8 -46 -9 -122 -1 -92 2 -136 10 -136 6 0 8 12 4
33 -4 26 -4 28 5 14 6 -11 9 -29 7 -41 -3 -16 1 -22 14 -23 10 -1 18 4 18 10
0 7 4 6 10 -3 5 -8 10 -46 10 -83 0 -52 3 -66 13 -61 8 6 8 3 -2 -9 -8 -10
-10 -23 -5 -34 11 -25 12 -46 2 -59 -10 -14 -8 -115 2 -109 10 6 8 -15 -3 -32
-13 -20 -4 -193 10 -193 7 0 13 -4 13 -10 0 -5 -6 -9 -12 -7 -8 1 -14 -10 -16
-26 -3 -26 -2 -27 37 -24 l41 3 1 -85 c1 -47 0 -99 0 -116 -2 -23 0 -27 8 -15
7 9 11 10 11 3 0 -6 -4 -14 -9 -18 -5 -3 -10 -32 -10 -66 0 -55 1 -59 17 -47
16 12 16 11 1 -7 -13 -15 -17 -42 -17 -117 l0 -98 33 0 c32 0 32 0 39 -61 3
-34 6 -88 6 -120 l0 -59 40 0 40 0 1 -47 c1 -27 0 -85 -1 -129 -1 -50 3 -84 9
-89 6 -3 11 -12 11 -18 0 -7 -4 -6 -10 3 -7 11 -10 8 -9 -15 0 -16 3 -24 6
-17 2 6 8 10 13 7 15 -9 34 24 21 38 -8 10 -7 14 3 14 20 0 39 -79 37 -150 -1
-37 2 -57 8 -53 5 4 13 2 16 -4 4 -6 1 -9 -7 -8 -10 2 -14 -18 -16 -84 l-3
-88 50 0 c30 0 51 5 54 13 3 6 6 2 6 -11 1 -13 5 -21 9 -18 4 2 8 -4 8 -14 0
-10 -4 -17 -7 -14 -11 6 -21 -14 -14 -26 5 -8 12 -7 23 2 10 7 14 8 10 4 -4
-5 0 -15 9 -21 14 -10 17 -27 15 -84 l-2 -71 40 0 c45 0 43 8 42 -125 -1 -61
1 -72 7 -47 9 34 25 59 21 32 -1 -8 -2 -24 0 -35 l1 -20 9 20 c8 19 9 19 9 -2
1 -12 9 -27 19 -32 15 -9 15 -12 2 -21 -11 -7 -5 -10 27 -10 37 0 42 -3 54
-33 24 -63 19 -72 -27 -47 -19 11 -37 20 -39 20 -3 0 -5 -22 -5 -50 l0 -50 54
0 c30 0 57 -4 61 -9 3 -6 -4 -8 -15 -6 -13 2 -20 -1 -20 -11 0 -20 16 -18 39
5 17 17 20 17 25 4 9 -23 8 -27 -16 -42 -23 -14 -23 -14 -5 7 18 20 18 20 -2
15 -12 -3 -21 -10 -21 -15 0 -5 -4 -7 -8 -4 -5 3 -9 -1 -9 -9 0 -10 11 -15 29
-15 26 0 28 -3 28 -40 0 -39 1 -40 36 -40 21 0 33 4 29 10 -3 6 -1 10 4 10 6
0 11 7 11 17 0 9 2 14 4 12 9 -8 17 -64 17 -116 l0 -53 40 0 c32 0 39 -3 39
-20 0 -17 7 -20 40 -20 42 0 46 -7 41 -62 -2 -14 6 -18 36 -18 l38 0 1 -77 c1
-43 2 -97 2 -120 l1 -43 81 0 80 0 1 -32 c0 -18 0 -64 0 -103 0 -39 5 -76 12
-84 9 -11 9 -13 0 -8 -7 4 -15 -5 -22 -23 -11 -33 -31 -41 -31 -12 0 14 2 15
10 2 8 -13 10 -12 10 3 0 14 -9 17 -45 17 l-45 0 0 -40 c0 -30 4 -40 16 -40
15 0 16 -13 11 -116 -3 -64 -8 -118 -10 -121 -3 -2 -18 -5 -35 -5 -34 -1 -33
2 -36 -155 -1 -70 -4 -83 -18 -83 -9 0 -19 -6 -21 -12 -4 -9 -6 -9 -6 1 -1 11
-5 10 -16 -5 -18 -24 -20 -114 -2 -114 9 0 9 -2 0 -8 -7 -4 -11 -37 -11 -89 0
-82 -6 -108 -23 -98 -5 4 -9 0 -9 -7 0 -8 -3 -9 -8 -3 -4 6 -15 11 -24 13 -15
2 -18 -5 -18 -48 0 -30 4 -50 11 -50 8 0 8 -5 -1 -15 -7 -8 -10 -28 -8 -43 2
-16 -2 -34 -9 -41 -8 -7 -13 -8 -13 -1 0 5 -4 10 -9 10 -13 0 -20 -73 -8 -88
6 -8 6 -12 -3 -12 -7 0 -10 -7 -6 -15 3 -8 1 -15 -5 -15 -6 0 -7 -6 -3 -12 5
-9 4 -10 -4 -3 -6 6 -12 24 -15 40 -2 17 -5 2 -6 -33 -1 -42 4 -72 15 -90 12
-21 13 -23 1 -9 -14 16 -15 8 -16 -87 -1 -70 2 -106 9 -106 6 0 8 -4 5 -10 -3
-5 3 -10 13 -10 21 0 32 18 32 53 0 18 2 19 10 7 8 -13 10 -12 10 3 0 13 9 17
41 17 40 0 41 0 38 34 -4 43 2 50 45 48 34 -1 35 0 38 41 l3 42 38 -3 37 -4 0
41 0 41 63 1 c34 1 71 0 82 -1 20 -2 20 -2 1 19 -19 21 -19 21 0 42 10 12 18
23 17 25 -2 2 -3 20 -3 39 0 34 1 35 41 35 l41 0 -4 37 c-2 29 1 38 17 43 11
4 26 5 34 2 10 -4 12 -1 6 9 -7 11 -6 11 9 -1 17 -14 18 -12 14 29 l-4 43 43
-7 c51 -7 60 4 45 57 l-9 35 43 -5 c48 -4 58 9 27 35 -10 8 -12 11 -5 8 9 -5
15 1 19 14 4 17 13 21 44 21 l39 0 1 53 c0 28 3 46 6 40 2 -7 20 -13 39 -13
35 0 35 0 31 40 l-4 40 43 0 44 0 0 40 c0 38 1 40 33 41 17 1 35 1 40 0 4 0 7
17 7 39 l0 40 40 0 40 0 0 40 c0 38 1 40 33 41 17 1 35 1 40 0 4 0 7 17 7 39
l0 40 40 0 40 0 0 40 0 40 41 0 41 0 -4 38 -3 37 43 3 c42 3 43 4 40 35 -2 24
-7 31 -20 29 -10 -2 -18 1 -18 6 0 5 23 9 52 11 65 3 68 5 68 47 0 35 7 38 66
37 7 0 12 9 12 21 -1 47 7 76 20 76 7 0 10 -4 7 -10 -3 -5 3 -10 14 -10 12 0
21 6 21 13 0 8 4 7 10 -3 8 -11 10 -4 8 25 -2 22 -7 43 -11 46 -5 3 14 4 42 1
l51 -5 0 32 c0 31 -14 42 -23 19 -4 -10 -6 -10 -6 0 -1 7 11 18 27 25 15 6 33
19 40 27 10 13 11 13 6 -2 -4 -13 0 -16 15 -15 18 1 21 7 19 37 l-3 35 45 0
45 0 1 45 c0 25 -4 51 -9 58 -6 7 -6 12 1 12 5 0 12 -6 15 -13 8 -20 67 -20
67 0 0 12 -3 13 -14 4 -11 -9 -16 -9 -22 1 -4 7 -4 10 1 6 13 -12 35 12 35 39
0 20 3 24 18 18 9 -5 28 -8 42 -9 23 -1 25 2 24 42 -1 44 5 48 60 42 16 -1 17
4 12 39 -3 22 -1 43 4 46 6 3 10 37 10 74 0 78 -12 96 -60 89 -29 -4 -30 -3
-30 34 0 38 0 38 -40 38 -39 0 -40 1 -40 34 0 38 -17 57 -31 35 -7 -12 -9 -12
-9 0 0 7 -6 11 -15 8 -8 -4 -17 -2 -21 4 -3 6 -22 8 -45 4 l-39 -7 0 39 c0 36
-2 39 -31 41 -39 3 -49 9 -49 28 0 10 12 14 40 14 34 0 40 3 40 21 0 19 -4 20
-42 16 -58 -7 -119 -24 -93 -27 l20 -1 -20 -8 c-26 -11 -34 -5 -28 19 5 18 0
20 -36 20 l-41 0 0 40 c0 39 -1 40 -35 40 -33 0 -35 2 -35 33 0 42 -15 57 -57
57 -31 0 -33 2 -33 35 0 29 -4 35 -21 35 -11 0 -29 -5 -40 -10 -11 -6 -19 -7
-18 -3 1 4 0 13 -1 18 -1 6 -1 25 0 42 1 31 -1 33 -30 33 -29 0 -31 -2 -19
-17 13 -17 13 -17 -7 0 -11 9 -23 15 -25 13 -2 -2 -2 16 0 40 l3 45 -38 -3
-39 -3 -3 43 c-3 42 -3 42 -43 42 -36 0 -39 2 -40 28 -1 15 -1 33 0 40 2 10
-8 13 -31 10 -31 -3 -33 -1 -36 32 -5 47 -18 60 -58 60 -32 0 -34 2 -34 35 0
31 -3 35 -25 35 -14 0 -25 -5 -25 -11 0 -6 -7 -4 -15 5 -8 8 -16 33 -17 55 -1
22 -5 38 -9 36 -4 -3 -10 1 -12 7 -4 10 -8 9 -16 -2 -9 -13 -11 -13 -11 3 0 9
-4 17 -8 17 -5 0 -8 10 -7 22 1 13 -1 28 -6 33 -4 6 -9 24 -12 40 -3 26 -8 30
-40 33 -36 3 -37 4 -37 43 0 21 -4 39 -10 39 -5 0 -10 18 -10 40 0 29 -4 40
-15 40 -11 0 -15 -12 -17 -42 l-1 -43 -4 39 c-3 21 -10 44 -17 51 -7 7 -11 27
-10 44 1 21 -3 31 -12 31 -8 0 -14 -7 -14 -15 0 -8 -5 -15 -11 -15 -6 0 -8 -7
-4 -17 5 -14 3 -15 -5 -7 -9 9 -9 17 -1 33 10 18 9 21 -9 21 -21 0 -23 7 -20
52 1 14 -3 29 -9 33 -6 3 -11 16 -10 28 1 20 2 20 9 -3 7 -22 8 -21 9 13 1 41
-8 47 -27 17 -7 -11 -18 -20 -25 -19 -9 0 -9 2 1 6 17 7 15 23 -3 23 -10 0
-15 10 -15 33 0 64 -8 76 -54 79 -38 3 -41 5 -38 30 2 17 -3 30 -15 38 -16 10
-16 11 0 6 11 -4 17 0 17 10 0 9 -6 14 -13 11 -8 -3 -14 1 -14 8 0 8 5 13 10
12 5 -1 12 4 14 11 3 8 -7 12 -32 12 -26 0 -34 -3 -29 -12 5 -10 4 -10 -6 -2
-7 7 -12 38 -12 74 -1 55 -3 61 -19 57 -11 -3 -17 -1 -13 4 3 5 12 9 20 9 18
0 17 10 -1 34 -7 10 -18 15 -23 12 -10 -6 -22 15 -22 39 0 8 10 16 23 18 l22
4 -22 2 c-20 1 -23 7 -23 41 0 38 -1 40 -32 40 -63 0 -62 -4 -63 249 0 126 -3
232 -6 236 -4 3 -32 2 -63 -3 -34 -6 -59 -5 -62 0 -3 5 -13 7 -21 3 -14 -5
-15 2 -10 47 4 29 4 83 0 121 l-6 67 -33 0 c-18 0 -36 5 -39 10 -3 6 3 10 14
10 17 0 21 6 21 30 0 26 -7 34 -30 32 -3 0 -3 31 -2 69 4 81 -6 99 -54 99
l-34 0 -1 73 c0 39 0 109 1 155 l1 82 -40 0 -41 0 -1 53 c0 28 0 71 1 93 1 23
-3 45 -9 49 -6 3 -11 14 -11 23 0 13 2 14 9 3 5 -8 9 4 9 33 1 34 -2 45 -11
39 -7 -4 -5 1 3 11 14 17 12 18 -28 13 l-42 -4 -1 136 c0 75 -1 166 -1 204 0
49 -3 67 -13 67 -14 0 -31 37 -21 47 3 4 6 -1 6 -10 0 -10 7 -17 15 -17 11 0
15 12 15 45 0 33 -4 45 -14 45 -8 0 -18 -5 -21 -10 -4 -7 -17 0 -32 16 -24 26
-24 28 -7 35 13 5 14 8 4 8 -13 1 -15 33 -12 241 l3 240 -31 0 c-17 0 -30 -5
-30 -12 0 -7 -5 -5 -11 5 -6 10 -10 67 -10 127 1 64 -3 111 -9 115 -6 3 -9 41
-8 88 l2 82 6 -85 c4 -61 6 -29 7 113 1 141 -2 197 -11 197 -8 0 -8 3 0 8 6 4
11 28 13 55 2 45 -3 53 -32 48 -5 -1 -5 3 -2 9 4 6 12 9 19 7 6 -3 12 6 12 19
1 15 -4 24 -12 24 -8 0 -14 -6 -14 -12 0 -9 -4 -8 -11 2 -9 12 -10 11 -6 -8 3
-12 1 -20 -4 -16 -5 3 -9 11 -9 19 0 10 -14 14 -50 13 l-50 0 0 -79z m150 -33
c0 -3 -4 -8 -10 -11 -5 -3 -10 -1 -10 4 0 6 5 11 10 11 6 0 10 -2 10 -4z
m-166 -141 c3 -9 0 -15 -9 -15 -9 0 -12 6 -9 15 4 8 7 15 9 15 2 0 5 -7 9 -15z
m153 -30 c0 -8 -4 -12 -9 -9 -5 3 -6 10 -3 15 9 13 12 11 12 -6z m-237 -233
c-6 -2 -8 -7 -6 -11 3 -4 -1 -8 -9 -8 -11 0 -12 4 -4 14 8 9 8 13 0 13 -6 0
-11 5 -11 10 0 6 8 5 20 -2 11 -7 16 -14 10 -16z m310 -348 c-6 -14 -10 -41
-10 -60 0 -19 -4 -34 -10 -34 -5 0 -10 18 -10 40 0 22 4 40 9 40 5 0 11 9 14
20 3 11 8 20 11 20 3 0 1 -12 -4 -26z m-10 -114 c0 -5 -5 -10 -11 -10 -5 0 -7
5 -4 10 3 6 8 10 11 10 2 0 4 -4 4 -10z m-423 -92 c-3 -8 -6 -5 -6 6 -1 11 2
17 5 13 3 -3 4 -12 1 -19z m452 -1 c0 -9 -2 -8 -6 1 -2 6 -10 9 -15 6 -7 -4
-8 -2 -4 5 9 13 26 5 25 -12z m-515 -177 c-5 -5 -10 3 -11 18 -1 22 0 24 9 8
6 -10 6 -22 2 -26z m576 -244 c0 -3 -4 -8 -10 -11 -5 -3 -10 -1 -10 4 0 6 5
11 10 11 6 0 10 -2 10 -4z m70 -366 c-8 -5 -19 -10 -25 -10 -5 0 -3 5 5 10 8
5 20 10 25 10 6 0 3 -5 -5 -10z m-682 -80 c-1 -41 -5 -68 -11 -67 -20 4 -47
37 -53 64 l-6 28 14 -25 c7 -14 22 -26 32 -28 17 -4 18 1 13 33 -5 32 -1 65 9
65 1 0 2 -31 2 -70z m700 -50 c7 -11 11 -20 9 -20 -2 0 -12 9 -22 20 -10 11
-14 20 -9 20 5 0 15 -9 22 -20z m-732 -49 c-4 -5 -3 -11 1 -14 5 -2 2 -2 -5
-1 -9 3 -10 -1 -2 -16 9 -16 8 -18 -5 -14 -18 7 -20 40 -2 47 18 8 19 8 13 -2z
m-3 -176 c-3 -9 -8 -14 -10 -11 -3 3 -2 9 2 15 9 16 15 13 8 -4z m817 -125 c0
-5 -2 -10 -4 -10 -3 0 -8 5 -11 10 -3 6 -1 10 4 10 6 0 11 -4 11 -10z m-810
-180 c0 -5 -2 -10 -4 -10 -3 0 -8 5 -11 10 -3 6 -1 10 4 10 6 0 11 -4 11 -10z
m-7 -361 c-4 -4 -6 31 -3 79 l5 87 3 -79 c2 -44 -1 -83 -5 -87z m34 39 c-2
-24 -4 -5 -4 42 0 47 2 66 4 43 2 -24 2 -62 0 -85z m1042 -153 c3 -17 2 -17
-13 -3 -19 20 -21 31 -3 26 6 -3 14 -13 16 -23z m39 -176 c-3 -33 -4 -33 -8 8
-3 23 -2 39 3 34 5 -5 7 -24 5 -42z m-1038 -229 c0 -5 -2 -10 -4 -10 -3 0 -8
5 -11 10 -3 6 -1 10 4 10 6 0 11 -4 11 -10z m-13 -87 c-3 -10 -5 -4 -5 12 0
17 2 24 5 18 2 -7 2 -21 0 -30z m29 2 c0 -14 -4 -25 -8 -25 -10 0 -10 13 -2
34 9 23 12 20 10 -9z m94 -631 c0 -25 -15 -33 -23 -11 -6 18 4 48 14 41 5 -3
9 -16 9 -30z m1434 -110 c3 -8 2 -12 -4 -9 -6 3 -10 10 -10 16 0 14 7 11 14
-7z m-1384 -24 c0 -5 -2 -10 -4 -10 -3 0 -8 5 -11 10 -3 6 -1 10 4 10 6 0 11
-4 11 -10z m-13 -40 c-1 -21 -10 -18 -13 5 -1 8 2 15 6 15 5 0 8 -9 7 -20z
m1868 -529 c3 -5 1 -12 -5 -16 -5 -3 -10 1 -10 9 0 18 6 21 15 7z m-28 -33
c-3 -7 -5 -2 -5 12 0 14 2 19 5 13 2 -7 2 -19 0 -25z m43 -2 c0 -2 -7 -7 -16
-10 -8 -3 -12 -2 -9 4 6 10 25 14 25 6z m115 -136 c3 -6 -1 -7 -9 -4 -18 7
-21 14 -7 14 6 0 13 -4 16 -10z m-1570 -420 c3 -5 1 -10 -4 -10 -6 0 -11 5
-11 10 0 6 2 10 4 10 3 0 8 -4 11 -10z m2078 -7 c-7 -2 -19 -2 -25 0 -7 3 -2
5 12 5 14 0 19 -2 13 -5z m253 -143 c0 -10 -2 -17 -5 -15 -2 3 -10 -3 -18 -13
-10 -12 -9 -8 2 16 18 37 21 39 21 12z m-2159 -85 c0 -8 -7 -15 -15 -15 -12 0
-12 3 -2 15 7 8 13 15 15 15 1 0 2 -7 2 -15z m136 -220 c-3 -9 -8 -14 -10 -11
-3 3 -2 9 2 15 9 16 15 13 8 -4z m1751 -430 c-4 -8 -10 -12 -15 -9 -14 8 -10
24 6 24 9 0 12 -6 9 -15z m-173 -159 c5 3 9 0 9 -6 0 -15 -23 -7 -26 8 -1 7 0
8 3 2 2 -5 9 -8 14 -4z m-65 -73 c-7 -7 -26 7 -26 19 0 6 6 6 15 -2 9 -7 13
-15 11 -17z m25 0 c-8 -15 -10 -15 -11 -2 0 17 10 32 18 25 2 -3 -1 -13 -7
-23z m-1233 -71 c2 -15 -2 -22 -12 -22 -11 0 -16 9 -16 26 0 31 23 28 28 -4z
m1082 -76 c0 -2 -9 -2 -20 1 -11 3 -20 9 -20 15 0 5 9 4 20 -2 11 -6 20 -12
20 -14z m-330 -320 c0 -2 -8 -10 -17 -17 -16 -13 -17 -12 -4 4 13 16 21 21 21
13z m-880 -186 c0 -10 -4 -22 -10 -25 -5 -3 -10 1 -10 10 0 11 -5 15 -15 11
-8 -3 -15 -1 -15 4 0 6 7 10 15 10 8 0 15 5 15 11 0 5 5 7 10 4 6 -3 10 -15
10 -25z m-13 -85 c0 -8 -4 -12 -9 -9 -4 3 -8 9 -8 15 0 5 4 9 8 9 5 0 9 -7 9
-15z m-87 -299 c0 -3 -4 -8 -10 -11 -5 -3 -10 -1 -10 4 0 6 5 11 10 11 6 0 10
-2 10 -4z m350 -84 c0 -5 -7 -9 -15 -9 -8 0 -12 4 -9 9 3 4 9 8 15 8 5 0 9 -4
9 -8z m-418 -54 c-7 -7 -12 -8 -12 -2 0 14 12 26 19 19 2 -3 -1 -11 -7 -17z
m374 -17 c0 -17 -3 -28 -6 -26 -5 3 -6 38 -1 53 4 10 7 -3 7 -27z"/>
<path d="M1868 8713 c7 -3 16 -2 19 1 4 3 -2 6 -13 5 -11 0 -14 -3 -6 -6z"/>
<path d="M5840 7980 c0 -11 6 -20 14 -20 7 0 16 9 19 20 4 15 0 20 -14 20 -12
0 -19 -7 -19 -20z"/>
<path d="M5680 7900 c0 -11 6 -20 14 -20 7 0 16 9 19 20 4 15 0 20 -14 20 -12
0 -19 -7 -19 -20z"/>
<path d="M5280 7740 c0 -11 6 -20 14 -20 7 0 16 9 19 20 4 15 0 20 -14 20 -12
0 -19 -7 -19 -20z"/>
<path d="M2220 7575 c0 -8 5 -15 10 -15 6 0 10 7 10 15 0 8 -4 15 -10 15 -5 0
-10 -7 -10 -15z"/>
<path d="M4800 7509 c0 -5 5 -7 10 -4 6 3 10 8 10 11 0 2 -4 4 -10 4 -5 0 -10
-5 -10 -11z"/>
<path d="M7100 7455 c-8 -9 -8 -15 -2 -15 12 0 26 19 19 26 -2 2 -10 -2 -17
-11z"/>
<path d="M1540 7190 c0 -5 5 -10 10 -10 6 0 10 5 10 10 0 6 -4 10 -10 10 -5 0
-10 -4 -10 -10z"/>
<path d="M1520 7160 c0 -5 5 -10 10 -10 6 0 10 5 10 10 0 6 -4 10 -10 10 -5 0
-10 -4 -10 -10z"/>
<path d="M1540 7120 c0 -13 7 -20 20 -20 24 0 25 6 6 26 -20 19 -26 18 -26 -6z"/>
<path d="M6560 7130 c0 -5 5 -10 10 -10 6 0 10 5 10 10 0 6 -4 10 -10 10 -5 0
-10 -4 -10 -10z"/>
<path d="M6620 7130 c0 -5 5 -10 10 -10 6 0 10 5 10 10 0 6 -4 10 -10 10 -5 0
-10 -4 -10 -10z"/>
<path d="M7600 6951 c0 -5 -9 -11 -20 -13 -28 -4 -27 -21 2 -30 23 -6 23 -6 1
-7 -12 -1 -25 -6 -28 -11 -5 -7 -11 -8 -19 -1 -8 7 -16 4 -26 -12 -8 -12 -13
-25 -12 -29 1 -5 -3 -8 -9 -8 -6 0 -8 9 -4 20 5 17 2 20 -19 18 -28 -2 -34
-13 -13 -21 10 -4 10 -6 0 -6 -7 -1 -13 -12 -13 -26 0 -28 4 -27 -152 -26
l-88 0 0 -37 c0 -20 -8 -46 -17 -57 -13 -16 -15 -17 -10 -2 6 15 -1 17 -63 17
l-70 0 0 -31 c0 -26 3 -31 20 -26 11 3 20 1 20 -4 0 -5 -5 -9 -11 -9 -5 0 -8
-4 -5 -8 3 -5 -1 -9 -9 -9 -8 0 -11 5 -8 10 4 6 1 7 -6 2 -7 -4 -46 -7 -87 -8
l-74 0 0 -28 c0 -27 -3 -29 -40 -29 -22 0 -40 -4 -40 -10 0 -5 -10 -10 -22
-10 -19 0 -20 -2 -8 -10 10 -6 11 -10 3 -10 -18 0 -28 4 -26 11 1 3 -5 6 -13
6 -10 0 -15 -9 -14 -26 4 -50 2 -51 -57 -52 -39 0 -52 -3 -38 -8 11 -5 26 -6
34 -3 8 3 7 -3 -5 -16 -22 -26 -25 -27 -18 -7 4 8 1 15 -5 15 -6 0 -11 -4 -11
-10 0 -5 -4 -10 -10 -10 -5 0 -9 3 -9 8 3 19 -3 28 -20 29 -16 1 -20 -6 -23
-40 l-3 -42 -62 3 c-53 3 -62 1 -66 -15 -4 -16 -5 -16 -6 0 -1 11 -9 17 -23
17 -19 0 -20 -2 -8 -10 10 -6 11 -10 3 -10 -8 0 -13 -14 -14 -32 0 -18 -3 -27
-6 -20 -6 14 -43 16 -43 2 0 -5 -9 -10 -21 -10 -13 0 -18 -4 -13 -12 6 -10 4
-10 -7 0 -7 6 -27 12 -45 12 -18 0 -35 -6 -37 -12 -4 -10 -6 -10 -6 0 -1 6
-10 12 -22 12 -21 0 -21 0 -2 -17 10 -10 13 -14 6 -9 -18 12 -22 7 -25 -36 -1
-24 -6 -34 -13 -29 -13 11 -85 13 -85 3 0 -5 3 -12 8 -18 4 -5 -1 -1 -11 10
-16 17 -20 18 -28 5 -6 -10 -9 -10 -9 -1 0 6 -4 12 -10 12 -5 0 -9 -17 -7 -37
2 -34 -1 -38 -23 -42 -14 -1 -28 -8 -32 -15 -6 -8 -8 -8 -8 0 0 7 -21 12 -50
13 -51 1 -59 -5 -37 -28 10 -11 9 -12 -1 -6 -10 5 -13 1 -10 -16 3 -23 1 -24
-79 -27 l-83 -3 0 -29 c0 -17 5 -30 13 -30 8 0 7 -4 -3 -10 -8 -5 -38 -10 -66
-10 -32 0 -56 -5 -63 -14 -10 -11 -9 -15 5 -18 16 -3 16 -4 -1 -18 -11 -8 -16
-10 -12 -3 4 6 3 14 -3 18 -5 3 -10 1 -10 -6 0 -7 -3 -9 -7 -6 -3 4 2 16 12
27 18 20 17 20 -13 20 -32 0 -43 -14 -19 -24 9 -3 7 -9 -5 -19 -10 -8 -18 -19
-18 -26 0 -8 -6 -8 -20 1 -15 10 -22 10 -28 2 -4 -8 -35 -11 -85 -10 -86 3
-99 -5 -79 -49 15 -32 3 -38 -65 -37 -49 0 -53 -1 -41 -16 11 -15 10 -14 -8 1
-23 19 -39 23 -29 7 3 -5 2 -10 -3 -10 -6 0 -13 -11 -16 -25 -6 -24 -9 -25
-86 -25 l-80 0 0 -45 0 -45 -47 -1 c-27 -1 -61 0 -77 1 -27 2 -28 1 -24 -40
l4 -43 -77 7 c-70 6 -78 4 -101 -17 -14 -13 -30 -21 -36 -19 -7 2 -12 -5 -13
-15 -1 -13 -3 -12 -10 7 -8 23 -8 22 -5 -7 3 -35 -4 -38 -78 -33 -16 1 -33 -4
-37 -12 -7 -10 -9 -10 -9 0 0 6 -9 12 -21 12 -21 0 -21 0 -2 -17 10 -10 14
-15 9 -10 -6 4 -31 7 -57 7 -46 0 -48 -1 -51 -32 -3 -31 -5 -33 -40 -30 l-37
3 -3 -43 -3 -43 -49 3 c-39 2 -47 0 -43 -12 4 -9 1 -18 -6 -22 -7 -4 -9 -4 -5
1 11 12 -11 35 -33 35 -15 0 -19 -8 -19 -40 0 -25 -5 -40 -12 -41 -7 0 -42 0
-78 1 l-65 1 -3 -37 c-1 -21 -4 -40 -7 -42 -3 -3 -56 -5 -119 -4 l-114 2 0
-36 c0 -19 -2 -37 -5 -40 -2 -3 -39 -5 -81 -5 -60 0 -81 -4 -95 -18 -9 -9 -23
-15 -29 -13 -7 2 -12 -5 -13 -15 -1 -13 -3 -12 -10 7 -8 23 -8 22 -5 -7 2 -32
1 -33 -35 -33 -21 0 -41 -5 -44 -10 -5 -8 -11 -7 -21 1 -11 9 -18 9 -26 1 -13
-13 -2 -32 18 -32 17 0 19 -16 2 -26 -7 -4 -8 -3 -4 4 4 7 1 12 -9 12 -9 0
-13 -4 -10 -10 3 -5 0 -7 -8 -4 -9 3 -13 16 -12 35 1 16 -2 29 -8 29 -6 0 -7
-16 -4 -40 3 -22 1 -43 -4 -46 -12 -7 -12 -141 0 -148 4 -3 7 -25 6 -48 -2
-24 -1 -37 2 -30 2 6 9 12 14 12 6 0 7 -4 4 -10 -3 -6 5 -10 19 -10 21 0 25
-6 31 -40 7 -39 8 -40 46 -40 44 0 41 11 40 -140 0 -57 3 -78 9 -65 7 17 9 17
9 3 1 -10 9 -18 19 -19 14 0 14 -2 -3 -9 -19 -8 -18 -9 4 -9 14 -1 33 -8 43
-18 17 -15 19 -15 38 2 34 31 49 14 43 -49 l-5 -56 33 0 c26 0 37 -6 44 -22 7
-17 20 -24 48 -26 37 -3 37 -3 38 -50 1 -26 1 -56 0 -67 -1 -18 0 -19 7 -2 9
22 21 24 33 5 8 -11 11 -11 18 1 15 23 24 -23 16 -81 l-7 -51 80 7 79 7 7 -60
7 -61 39 0 c34 0 40 -3 40 -21 0 -18 5 -21 38 -17 32 3 41 -1 49 -19 6 -13 8
-21 3 -18 -4 2 -7 -7 -7 -21 -1 -21 4 -25 26 -24 44 3 51 1 51 -20 0 -11 5
-20 10 -20 6 0 10 9 10 19 0 19 23 35 34 24 3 -4 6 -14 6 -24 0 -9 6 -20 13
-23 10 -5 10 -7 0 -12 -17 -7 -17 -25 0 -23 6 1 29 1 50 0 32 -1 37 -4 37 -25
0 -13 6 -27 13 -29 9 -4 9 -6 0 -6 -30 -2 -10 -20 25 -23 36 -3 37 -4 37 -43
l0 -40 83 3 82 3 0 -42 0 -41 40 4 40 4 0 -42 0 -41 48 1 c26 1 53 5 61 10 10
6 12 5 7 -2 -5 -8 2 -12 18 -12 24 0 26 -4 26 -40 0 -39 1 -40 34 -40 28 0 35
-4 38 -22 4 -33 41 -35 65 -4 15 19 23 22 32 13 6 -6 11 -16 11 -22 0 -5 -5
-3 -10 5 -7 11 -10 8 -10 -16 0 -28 3 -32 28 -31 15 0 51 -1 80 -2 l52 -1 0
-38 0 -38 77 -3 c43 -1 80 -4 82 -7 3 -3 4 -20 3 -38 l-2 -33 79 -7 c63 -6 81
-11 84 -24 4 -15 5 -15 6 1 1 20 17 23 24 5 4 -9 6 -8 6 2 1 8 8 2 16 -14 8
-15 13 -32 10 -36 -12 -19 152 -29 171 -10 6 6 9 -6 9 -33 l0 -42 89 -3 c66
-3 91 0 97 10 7 10 9 10 9 1 0 -7 9 -13 20 -13 20 0 25 -17 21 -62 -2 -12 5
-18 18 -18 12 0 21 5 21 10 0 7 6 7 19 0 11 -5 38 -10 60 -10 23 0 41 -4 41
-10 0 -16 32 -11 46 8 12 15 12 15 7 -5 -4 -16 -13 -23 -29 -23 -15 0 -24 -6
-24 -15 0 -21 43 -19 63 3 10 10 17 23 17 29 0 15 20 20 55 14 27 -6 30 -9 27
-43 l-3 -36 84 -7 c47 -4 136 -6 199 -4 l114 4 -4 -28 c-6 -37 13 -57 54 -57
19 0 34 -4 34 -9 0 -13 59 7 83 27 12 11 17 11 17 3 0 -8 14 -12 38 -11 20 1
124 2 230 1 l192 -1 0 -40 0 -40 98 0 c71 0 93 3 82 11 -11 8 -8 9 15 5 61
-11 226 -16 220 -6 -3 6 0 10 9 10 8 0 16 -5 18 -11 3 -8 10 -8 26 2 17 10 26
11 40 3 27 -17 882 -18 882 -1 0 9 2 9 8 0 11 -18 348 -13 344 5 -1 8 2 11 8
7 6 -3 8 -10 5 -15 -3 -4 33 -9 80 -9 l85 -1 0 79 0 78 -52 7 c-29 3 -99 6
-154 6 -107 0 -114 3 -114 51 0 17 -8 19 -59 19 -48 0 -60 -3 -64 -17 -4 -15
-5 -15 -6 -2 -1 22 -50 22 -74 1 -15 -14 -18 -14 -15 -2 2 11 -9 16 -44 18
-47 3 -48 4 -54 43 l-7 39 -198 0 c-152 0 -199 3 -200 13 -1 6 -1 26 0 42 1
23 -1 26 -9 15 -7 -11 -10 -12 -10 -2 0 8 -6 12 -12 9 -7 -2 -12 -10 -10 -16
1 -7 -2 -10 -8 -6 -6 3 -7 11 -4 17 4 6 -5 9 -22 8 -63 -4 -84 0 -84 17 0 14
-2 14 -20 -2 -19 -17 -21 -17 -40 0 -18 16 -20 16 -20 2 0 -14 -12 -17 -80
-17 -86 0 -84 -1 -82 58 1 16 -4 22 -21 22 -18 0 -19 -2 -7 -10 12 -7 10 -9
-7 -7 -12 0 -19 5 -16 10 3 4 -19 8 -49 8 -29 0 -72 2 -95 5 -38 5 -43 9 -44
33 -1 14 -1 29 0 34 0 4 -15 7 -34 7 -36 0 -38 3 -47 65 -4 25 -31 27 -36 3
-2 -12 3 -18 14 -18 10 0 15 -3 11 -6 -10 -10 -49 7 -44 20 7 17 -57 23 -158
17 -94 -6 -105 -4 -105 25 0 21 -4 25 -17 20 -16 -6 -16 -5 0 8 23 18 12 25
-39 24 -21 0 -52 7 -69 16 -27 14 -30 14 -36 -1 -5 -15 -6 -15 -12 0 -7 19
-38 23 -33 5 1 -7 1 -10 -1 -5 -3 4 -12 7 -21 8 -12 0 -10 3 6 9 23 10 30 30
10 30 -6 0 -8 3 -4 7 4 4 15 -2 24 -13 14 -17 25 -20 65 -16 38 3 47 8 47 23
0 23 -9 24 -46 4 -28 -14 -50 -11 -25 4 8 5 -6 8 -35 8 -27 -1 -86 2 -131 7
l-83 7 0 35 0 35 -67 -1 c-38 -1 -74 -1 -80 -1 -8 1 -13 16 -13 41 l0 39 -75
-1 c-41 -1 -77 1 -80 4 -3 2 -6 29 -8 58 -2 47 -6 55 -25 60 -29 6 -32 24 -6
27 18 3 18 2 -1 -6 -18 -9 -17 -10 8 -10 17 -1 27 4 27 13 0 11 -13 15 -50 14
-31 0 -50 -4 -50 -11 0 -8 -3 -7 -9 1 -5 8 -35 16 -70 19 l-61 6 0 73 0 74
-71 0 c-51 0 -68 -3 -63 -12 4 -6 -3 -4 -17 5 -13 9 -40 17 -59 17 -35 0 -36
1 -32 35 4 34 4 34 -33 33 -22 -1 -40 4 -45 13 -7 11 -12 11 -22 1 -6 -6 -23
-12 -36 -12 -21 0 -23 3 -17 28 15 55 13 57 -38 57 l-47 0 0 37 c0 35 -1 36
-35 36 -20 0 -41 5 -49 11 -7 6 -17 7 -21 3 -5 -4 -5 -1 -1 6 4 7 12 10 17 6
7 -4 9 5 7 22 -3 26 -7 29 -43 31 -37 1 -38 0 -20 -14 20 -15 20 -15 0 -11
-18 3 -20 10 -17 56 l4 53 -37 -4 c-30 -4 -38 -1 -44 17 -5 11 -6 27 -3 34 2
7 -2 12 -9 10 -8 -2 -13 3 -12 9 2 7 0 12 -5 12 -40 -7 -52 2 -52 39 0 35 -2
37 -33 38 -17 1 -25 0 -15 -3 9 -2 19 -11 22 -19 3 -9 1 -12 -4 -9 -6 3 -10 1
-10 -6 0 -6 -9 0 -20 14 -11 14 -20 35 -20 46 0 12 -4 21 -10 21 -5 0 -10 5
-10 11 0 5 5 7 10 4 6 -3 10 1 10 9 0 12 -10 16 -40 16 -36 0 -40 3 -40 24 0
42 -11 56 -41 56 -26 0 -29 3 -29 33 0 41 -15 57 -55 57 -40 0 -47 7 -33 33 6
11 14 43 18 71 l8 51 1 -42 c1 -31 5 -43 16 -43 11 0 15 11 15 40 l0 40 83 1
c45 1 85 1 90 0 4 0 7 10 7 24 0 25 -14 33 -25 15 -4 -6 -11 -8 -16 -4 -14 8
11 36 27 30 7 -3 14 -1 16 4 2 5 30 10 63 11 33 1 63 7 67 13 5 8 8 7 8 -1 0
-7 5 -13 10 -13 6 0 10 18 10 39 0 39 18 59 37 40 17 -17 90 1 102 25 7 11 9
13 7 4 -3 -10 -1 -20 4 -23 6 -4 10 3 10 14 0 17 6 21 36 21 27 0 37 5 41 20
4 16 14 20 45 20 l39 0 -3 43 c-4 41 -4 42 26 42 30 0 31 -1 27 -42 -2 -34 0
-43 13 -43 12 0 16 10 16 40 0 40 0 40 40 40 32 0 39 4 38 18 -3 42 2 52 30
52 43 0 71 11 75 29 4 14 5 14 6 -1 1 -15 10 -18 51 -18 28 0 50 5 50 10 0 6
5 10 11 10 5 0 7 -4 4 -10 -3 -5 -1 -10 4 -10 19 0 12 33 -11 59 -21 24 -21
24 -2 8 21 -17 22 -17 27 3 5 18 8 19 31 9 20 -10 26 -19 26 -46 l0 -33 50 0
c28 0 50 4 50 9 0 5 -16 8 -36 7 -20 -1 -38 2 -40 6 -3 5 0 8 5 8 15 0 14 27
-1 33 -7 3 -2 6 12 7 39 1 60 23 60 61 0 34 -14 31 -23 -6 -4 -18 -5 -18 -6 2
0 12 4 25 10 29 6 3 57 6 113 5 91 -1 99 0 82 14 -10 8 -23 12 -27 9 -5 -3 -6
3 -2 12 4 11 8 13 11 6 2 -7 8 -12 13 -12 6 0 7 5 4 10 -4 6 -1 9 6 8 8 -2 18
-12 24 -22 13 -25 35 -32 35 -12 0 9 -4 16 -10 16 -5 0 -10 12 -9 28 l1 27 8
-25 c8 -24 8 -24 9 -2 1 19 6 22 42 22 38 0 40 2 39 28 -1 15 -2 32 -1 37 1 6
56 9 152 7 182 -4 183 -3 175 81 -7 70 2 137 15 115 7 -10 9 -10 9 0 0 7 4 11
10 7 5 -3 7 -11 4 -18 -2 -7 4 -13 14 -14 17 -1 20 8 26 68 3 39 3 75 0 81 -4
6 1 8 12 6 14 -2 20 -13 22 -41 3 -29 7 -37 23 -37 19 0 20 6 19 88 -2 155 -3
152 23 152 13 0 29 6 36 13 11 10 13 10 7 0 -4 -7 -2 -13 4 -13 7 0 10 14 8
35 -1 22 3 39 11 44 11 7 11 9 0 14 -11 4 -11 7 3 18 9 8 18 23 21 34 3 11 5
1 6 -22 1 -36 4 -43 21 -43 19 0 20 7 20 120 l0 120 41 0 c36 0 40 3 39 23 -6
71 1 137 14 137 8 0 17 6 19 13 4 10 6 10 6 0 1 -20 38 -15 38 5 0 66 2 69 34
64 25 -4 30 -2 24 9 -8 12 -6 12 8 1 14 -12 16 -9 15 35 -1 96 1 113 18 113 8
0 13 4 9 9 -3 5 -1 13 5 16 6 4 9 1 8 -6 -2 -6 3 -14 10 -16 7 -3 12 -1 11 4
-3 20 2 27 11 13 8 -12 10 -9 10 13 0 19 -7 31 -22 38 l-23 10 23 -5 c21 -4
22 -1 22 51 0 51 -1 54 -22 48 -17 -6 -20 -4 -15 9 4 9 2 16 -2 16 -5 0 -7 9
-4 20 4 15 0 20 -16 20 -11 0 -21 -4 -21 -9z m-293 -183 c-3 -8 -6 -5 -6 6 -1
11 2 17 5 13 3 -3 4 -12 1 -19z m-67 -7 c0 -5 3 -18 6 -28 5 -15 3 -15 -7 2
-7 11 -17 23 -23 27 -7 5 -4 8 7 8 9 0 17 -4 17 -9z m-183 -83 c-3 -7 -5 -2
-5 12 0 14 2 19 5 13 2 -7 2 -19 0 -25z m44 4 c-7 -2 -18 1 -23 6 -8 8 -4 9
13 5 13 -4 18 -8 10 -11z m44 -1 c3 -5 2 -12 -3 -15 -5 -3 -9 1 -9 9 0 17 3
19 12 6z m412 -97 c-3 -3 -12 -4 -19 -1 -8 3 -5 6 6 6 11 1 17 -2 13 -5z m-57
-38 c0 -3 -4 -8 -10 -11 -5 -3 -10 -1 -10 4 0 6 5 11 10 11 6 0 10 -2 10 -4z
m-736 -34 c3 -5 -1 -9 -9 -9 -8 0 -12 4 -9 9 3 4 7 8 9 8 2 0 6 -4 9 -8z m653
-147 c0 -8 -4 -15 -9 -15 -10 0 -11 14 -1 23 9 10 10 9 10 -8z m-167 -336 c0
-13 -28 -18 -33 -6 -3 7 3 13 14 13 11 0 19 -3 19 -7z m-70 -91 c0 -4 -7 -8
-15 -8 -8 0 -15 4 -15 8 0 5 7 9 15 9 8 0 15 -4 15 -9z m-2589 -421 c-10 -9
-11 -8 -5 6 3 10 9 15 12 12 3 -3 0 -11 -7 -18z m-191 -36 c0 -5 -8 -11 -17
-14 -10 -2 -27 -8 -38 -13 -16 -6 -15 -3 5 14 26 22 50 28 50 13z m2207 -53
c-3 -8 -6 -5 -6 6 -1 11 2 17 5 13 3 -3 4 -12 1 -19z m-2334 -33 c-3 -9 -8
-14 -10 -11 -3 3 -2 9 2 15 9 16 15 13 8 -4z m2164 -10 c0 -8 -4 -12 -9 -9 -5
3 -6 10 -3 15 9 13 12 11 12 -6z m-302 -145 c3 -5 1 -10 -4 -10 -6 0 -11 5
-11 10 0 6 2 10 4 10 3 0 8 -4 11 -10z m80 -8 c-3 -3 -11 0 -18 7 -9 10 -8 11
6 5 10 -3 15 -9 12 -12z m-2501 -50 c3 -5 -1 -9 -9 -9 -8 0 -12 4 -9 9 3 4 7
8 9 8 2 0 6 -4 9 -8z m1764 -236 c-7 -8 -15 -12 -17 -11 -5 6 10 25 20 25 5 0
4 -6 -3 -14z m29 -4 c0 -10 -6 -19 -13 -19 -9 0 -9 5 -1 19 7 10 13 18 14 18
1 0 1 -8 0 -18z m-247 -396 c0 -2 -9 -6 -20 -9 -11 -3 -20 -1 -20 4 0 5 9 9
20 9 11 0 20 -2 20 -4z m-1755 -16 c3 -5 1 -10 -4 -10 -6 0 -11 5 -11 10 0 6
2 10 4 10 3 0 8 -4 11 -10z m-17 -60 c-7 -10 -14 -18 -15 -16 -6 6 9 36 18 36
5 0 4 -9 -3 -20z m1829 -6 c-3 -3 -12 -4 -19 -1 -8 3 -5 6 6 6 11 1 17 -2 13
-5z m0 -30 c-3 -3 -12 -4 -19 -1 -8 3 -5 6 6 6 11 1 17 -2 13 -5z m167 -140
c3 -8 2 -12 -4 -9 -6 3 -10 10 -10 16 0 14 7 11 14 -7z m43 -98 c-8 -8 -17
-12 -21 -9 -3 3 2 12 12 19 22 16 29 9 9 -10z m63 20 c0 -2 -8 -10 -17 -17
-16 -13 -17 -12 -4 4 13 16 21 21 21 13z m355 -326 c3 -6 -1 -7 -9 -4 -18 7
-21 14 -7 14 6 0 13 -4 16 -10z m198 -111 c-8 -8 -13 -7 -18 2 -5 8 -4 10 3 5
7 -4 12 -2 12 5 0 7 3 9 7 6 4 -4 2 -12 -4 -18z m32 -9 c3 -5 1 -10 -4 -10 -6
0 -11 5 -11 10 0 6 2 10 4 10 3 0 8 -4 11 -10z m294 -144 c-2 -2 -17 -6 -34
-10 -22 -5 -26 -4 -15 4 14 9 59 15 49 6z m-1709 -199 c0 -7 -4 -6 -10 3 -9
13 -10 13 -10 0 0 -9 4 -21 10 -28 5 -7 3 -6 -6 2 -10 8 -14 21 -10 31 6 18
26 12 26 -8z m2402 -205 c4 -16 1 -18 -21 -13 -19 3 -21 6 -8 9 9 2 17 8 17
13 0 15 7 10 12 -9z m-1922 -36 c0 -3 -4 -8 -10 -11 -5 -3 -10 -1 -10 4 0 6 5
11 10 11 6 0 10 -2 10 -4z m2197 -52 c-9 -9 -28 6 -21 18 4 6 10 6 17 -1 6 -6
8 -13 4 -17z m-2117 6 c0 -5 -5 -10 -11 -10 -5 0 -7 5 -4 10 3 6 8 10 11 10 2
0 4 -4 4 -10z m2504 -145 c-4 -8 -13 -15 -22 -15 -13 0 -12 3 4 15 24 18 25
18 18 0z m988 -227 c-7 -7 -12 -8 -12 -2 0 14 12 26 19 19 2 -3 -1 -11 -7 -17z
m101 5 c-7 -2 -19 -2 -25 0 -7 3 -2 5 12 5 14 0 19 -2 13 -5z m302 -143 c-3
-5 -10 -10 -16 -10 -5 0 -9 5 -9 10 0 6 7 10 16 10 8 0 12 -4 9 -10z m-1752
-40 c10 -10 9 -11 -3 -4 -8 5 -23 7 -32 6 -10 -2 -18 1 -18 6 0 13 38 8 53 -8z
m1020 3 c-90 -2 -236 -2 -325 0 -90 1 -17 3 162 3 179 0 252 -2 163 -3z m707
-8 c0 -2 -9 -3 -19 -2 -11 0 -18 5 -15 9 4 6 34 0 34 -7z m-237 -12 c-7 -2
-19 -2 -25 0 -7 3 -2 5 12 5 14 0 19 -2 13 -5z"/>
<path d="M7663 6953 c-18 -7 -16 -33 2 -33 8 0 15 9 15 20 0 11 -1 20 -2 19
-2 0 -9 -3 -15 -6z"/>
<path d="M3148 6793 c7 -3 16 -2 19 1 4 3 -2 6 -13 5 -11 0 -14 -3 -6 -6z"/>
<path d="M5345 6640 c-3 -5 -1 -10 4 -10 6 0 11 5 11 10 0 6 -2 10 -4 10 -3 0
-8 -4 -11 -10z"/>
<path d="M5338 6583 c7 -3 16 -2 19 1 4 3 -2 6 -13 5 -11 0 -14 -3 -6 -6z"/>
<path d="M5338 6513 c-10 -2 -15 -10 -11 -19 8 -21 33 -17 33 6 0 11 -1 19 -2
19 -2 -1 -11 -3 -20 -6z"/>
<path d="M6340 6365 c0 -8 7 -15 15 -15 8 0 15 7 15 15 0 8 -7 15 -15 15 -8 0
-15 -7 -15 -15z"/>
<path d="M1531 6340 c-7 -37 -5 -118 2 -111 4 4 6 35 4 67 -2 32 -4 52 -6 44z"/>
<path d="M2534 6229 c-10 -17 13 -36 27 -22 12 12 4 33 -11 33 -5 0 -12 -5
-16 -11z"/>
<path d="M5440 5964 c0 -8 5 -12 10 -9 6 3 10 10 10 16 0 5 -4 9 -10 9 -5 0
-10 -7 -10 -16z"/>
<path d="M4720 5720 c0 -22 5 -40 10 -40 6 0 10 18 10 40 0 22 -4 40 -10 40
-5 0 -10 -18 -10 -40z"/>
<path d="M4585 5690 c-16 -7 -14 -8 12 -7 17 1 29 5 26 10 -5 9 -12 8 -38 -3z"/>
<path d="M4444 5619 c-10 -17 13 -36 27 -22 12 12 4 33 -11 33 -5 0 -12 -5
-16 -11z"/>
<path d="M4588 5593 c7 -3 16 -2 19 1 4 3 -2 6 -13 5 -11 0 -14 -3 -6 -6z"/>
<path d="M4000 5400 c0 -21 4 -30 13 -27 6 2 12 14 12 27 0 13 -6 25 -12 28
-9 2 -13 -7 -13 -28z"/>
<path d="M2836 5333 c-11 -11 -6 -23 9 -23 8 0 15 4 15 9 0 13 -16 22 -24 14z"/>
<path d="M6350 5245 c0 -8 5 -15 10 -15 6 0 10 7 10 15 0 8 -4 15 -10 15 -5 0
-10 -7 -10 -15z"/>
<path d="M6380 5245 c0 -8 5 -15 10 -15 6 0 10 7 10 15 0 8 -4 15 -10 15 -5 0
-10 -7 -10 -15z"/>
<path d="M3440 5126 c0 -8 10 -12 28 -11 47 3 52 5 52 15 0 6 -18 10 -40 10
-27 0 -40 -4 -40 -14z"/>
<path d="M3426 4371 c-4 -7 -5 -15 -2 -18 9 -9 19 4 14 18 -4 11 -6 11 -12 0z"/>
<path d="M3390 4360 c0 -5 5 -10 10 -10 6 0 10 5 10 10 0 6 -4 10 -10 10 -5 0
-10 -4 -10 -10z"/>
<path d="M3520 4340 c0 -13 7 -20 20 -20 13 0 20 7 20 20 0 13 -7 20 -20 20
-13 0 -20 -7 -20 -20z"/>
<path d="M1880 4170 c0 -5 5 -10 10 -10 6 0 10 5 10 10 0 6 -4 10 -10 10 -5 0
-10 -4 -10 -10z"/>
<path d="M3790 4090 c0 -5 7 -10 15 -10 8 0 15 5 15 10 0 6 -7 10 -15 10 -8 0
-15 -4 -15 -10z"/>
<path d="M2001 3814 c0 -11 3 -14 6 -6 3 7 2 16 -1 19 -3 4 -6 -2 -5 -13z"/>
<path d="M4240 3690 c0 -5 5 -10 10 -10 6 0 10 5 10 10 0 6 -4 10 -10 10 -5 0
-10 -4 -10 -10z"/>
<path d="M8000 3024 c0 -14 3 -14 15 -4 8 7 15 14 15 16 0 2 -7 4 -15 4 -8 0
-15 -7 -15 -16z"/>
<path d="M8050 3036 c0 -2 7 -9 15 -16 12 -10 15 -10 15 4 0 9 -7 16 -15 16
-8 0 -15 -2 -15 -4z"/>
<path d="M6834 2606 c-19 -15 -19 -15 1 -30 31 -24 45 -19 45 14 0 33 -15 38
-46 16z"/>
<path d="M7838 2563 c7 -3 16 -2 19 1 4 3 -2 6 -13 5 -11 0 -14 -3 -6 -6z"/>
<path d="M2714 2237 c-2 -8 -4 -47 -2 -88 3 -71 4 -74 28 -74 25 0 25 1 25 85
0 81 -1 85 -23 88 -12 2 -24 -3 -28 -11z"/>
<path d="M2483 1223 c0 -21 2 -29 4 -19 4 15 7 16 14 5 6 -10 9 -4 9 19 0 20
-5 32 -13 32 -9 0 -14 -13 -14 -37z"/>
</g>
</svg>
